# xmcd
#
# Track frame offsets:
#	150
#	25845
#	51732
#	73780
#	99422
#	134317
#	159550
#	193955
#	220430
#	238097
#
# Disc length: 3533 seconds
#
# Revision: 1
# Processed by: cddbd v1.5.2PL0 Copyright (c) Steve Scherf et al.
# Submitted via: EZCDAudioConverter 8.0.2.1
#
DISCID=9b0dcb0a
DTITLE=Various Artist - Nhạc Tiền Chiến 3
DYEAR=1995
DGENRE=Pop
TTITLE0=Thanh Lan - Trăng mờ bên suối
TTITLE1=Thái Hiền - Suối tóc
TTITLE2=Jo Marcel - Mưa Sài Gòn, mưa Hà Nội
TTITLE3=Mai Hương - Đưa em tìm động hoa vàng
TTITLE4=Thanh Lan - Tà áo xanh
TTITLE5=Tuấn Ngọc - Thuở ban đầu
TTITLE6=Thanh Lan - Suối mơ
TTITLE7=Vũ Khanh - Em đến thăm anh đêm 30
TTITLE8=Thái Hiền - Tiếng hát với cung đàn
TTITLE9=Jo Marcel - Bóng chiều xưa
EXTD=
EXTT0=
EXTT1=
EXTT2=
EXTT3=
EXTT4=
EXTT5=
EXTT6=
EXTT7=
EXTT8=
EXTT9=
PLAYORDER=
